:SAMPLES-PER-SECOND 30
:FULLY-SPECIFIED
:DEGREES
81
root  37.5626 45.722 -0.489075 -138.045 86.0439 -139.723
RightUpLeg  -12.7984 6.31051 6.54602
RightLeg  35.6248 10.638 0.600057
RightFoot  23.6041 -1.77739 5.32635
RightToes  3.49245e-010 -3.18055e-015 8.94531e-016
Spine  0.778045 -1.091 -2.83872
Spine1  10.2382 -2.32341 3.73705
HEad  -21.6046 0.909588 4.96366
LeftShoulder1  0 -2.69403e-036 -1.28585e-037
LeftArm  23.489 52.0421 -76.7429
LeftForeArm  -40.3412 -33.4795 20.4083
LeftHand  0.701693 5.43388 2.24565
RightShoulder  -2.48481e-017 0 -8.08114e-019
RightArm  43.205 -54.0377 79.0185
RightForeArm  -46.6728 20.8693 -18.0124
RightHand  1.29495 -11.4297 -3.90606
LeftUpLeg  -14.236 -14.0082 0.0646009
LeftLeg  35.6 -2.6743 6.11719
LeftFoot  13.658 0.646066 -2.51263
LeftToes  2.65573e-010 7.17151e-011 4.62952e-011
82
root  39.0367 46.3868 -0.467415 -136.909 86.4808 -138.597
RightUpLeg  -15.4246 5.18058 5.86234
RightLeg  35.3382 11.095 0.95683
RightFoot  21.3865 -1.31672 4.21398
RightToes  3.49245e-010 -3.18055e-015 8.94531e-016
Spine  3.71657 -0.686432 -2.42669
Spine1  9.91693 -1.86963 3.49577
HEad  -21.7597 0.599734 5.01849
LeftShoulder1  0 -2.69403e-036 -1.28585e-037
LeftArm  23.1251 53.8341 -78.0849
LeftForeArm  -42.4289 -32.1285 19.723
LeftHand  0.769453 5.84693 2.05267
RightShoulder  -2.48481e-017 0 -8.08114e-019
RightArm  45.2433 -52.1898 79.1796
RightForeArm  -45.747 20.7917 -16.2915
RightHand  1.24299 -11.3164 -3.06131
LeftUpLeg  -16.2218 -13.1841 -0.290122
LeftLeg  33.6624 -3.45125 5.0096
LeftFoot  10.5227 0.717581 -3.23667
LeftToes  2.65573e-010 7.17151e-011 4.62952e-011
83
root  40.5795 46.673 -0.454968 -129.053 87.0562 -131.886
RightUpLeg  -18.6325 4.40138 5.34094
RightLeg  32.8147 10.9687 0.850063
RightFoot  18.3004 -0.837374 2.95413
RightToes  3.49245e-010 -3.18055e-015 8.94531e-016
Spine  5.02959 -0.248847 -1.39518
Spine1  9.75561 -1.10481 2.64535
HEad  -22.0267 0.378441 5.03581
LeftShoulder1  0 -2.69403e-036 -1.28585e-037
LeftArm  23.2522 55.5019 -79.087
LeftForeArm  -43.6595 -30.7545 19.0963
LeftHand  0.847228 6.21748 0.221238
RightShoulder  -2.48481e-017 0 -8.08114e-019
RightArm  46.2739 -51.1625 79.7042
RightForeArm  -45.7522 20.7875 -15.4179
RightHand  1.19488 -11.1661 -2.37043
LeftUpLeg  -18.5156 -11.8702 -0.390268
LeftLeg  29.4421 -4.69987 3.22408
LeftFoot  8.11501 0.865907 -4.42722
LeftToes  2.65573e-010 7.17151e-011 4.62952e-011
84
root  42.1341 46.5548 -0.448035 -116.849 87.441 -121.176
RightUpLeg  -21.6402 3.49533 5.08824
RightLeg  28.6047 10.6669 0.653063
RightFoot  15.7306 -0.755891 2.91709
RightToes  3.49245e-010 -3.18055e-015 8.94531e-016
Spine  6.00814 0.0546709 0.115894
Spine1  9.37867 -0.25872 1.1791
HEad  -23.0203 0.45399 4.86778
LeftShoulder1  0 -2.69403e-036 -1.28585e-037
LeftArm  23.0032 57.3641 -79.5414
LeftForeArm  -44.6827 -30.0799 18.7752
LeftHand  0.896523 6.43757 -1.86047
RightShoulder  -2.48481e-017 0 -8.08114e-019
RightArm  46.2733 -51.0257 80.7723
RightForeArm  -46.441 20.8294 -15.7914
RightHand  1.20754 -11.1944 -2.58928
LeftUpLeg  -20.6609 -10.5433 -0.331476
LeftLeg  23.9617 -4.5833 2.26241
LeftFoot  7.68212 1.12868 -5.93627
LeftToes  2.65573e-010 7.17151e-011 4.62952e-011
85
root  43.7025 46.0379 -0.421771 -109.07 87.4849 -114.7
RightUpLeg  -23.9345 2.59282 5.17653
RightLeg  23.7711 10.5521 0.611278
RightFoot  14.647 -1.06786 4.29773
RightToes  3.49245e-010 -3.18055e-015 8.94531e-016
Spine  7.02267 0.223976 1.16572
Spine1  9.04787 0.272635 0.322549
HEad  -24.9153 0.721106 4.70022
LeftShoulder1  0 -2.69403e-036 -1.28585e-037
LeftArm  21.6589 59.2195 -80.367
LeftForeArm  -46.0992 -29.7091 18.5592
LeftHand  0.920989 6.54906 -3.24911
RightShoulder  -2.48481e-017 0 -8.08114e-019
RightArm  45.7158 -51.1731 82.0211
RightForeArm  -47.0458 20.8742 -16.6947
RightHand  1.25206 -11.2945 -3.33537
LeftUpLeg  -22.4399 -9.37993 -0.301085
LeftLeg  18.5396 -3.16261 1.94161
LeftFoot  9.00272 1.35814 -6.7136
LeftToes  2.65573e-010 7.17151e-011 4.62952e-011
86
root  45.3423 45.0455 -0.360497 -109.578 87.2787 -116.328
RightUpLeg  -25.7397 2.16411 5.53143
RightLeg  19.9046 10.4111 0.571637
RightFoot  14.7434 -1.3368 5.36414
RightToes  3.49245e-010 -3.18055e-015 8.94531e-016
Spine  7.55273 0.332052 1.62035
Spine1  9.11021 0.451853 0.305945
HEad  -27.4063 0.955152 4.7063
LeftShoulder1  0 -2.69403e-036 -1.28585e-037
LeftArm  19.9696 60.3069 -81.9028
LeftForeArm  -47.4789 -28.7217 18.1099
LeftHand  0.934045 6.6083 -4.1481
RightShoulder  -2.48481e-017 0 -8.08114e-019
RightArm  43.5685 -50.9871 83.3964
RightForeArm  -46.2275 20.8293 -16.5191
RightHand  1.24691 -11.2216 -3.43586
LeftUpLeg  -24.1229 -7.563 -0.807634
LeftLeg  14.7703 -3.15407 1.86942
LeftFoot  10.3349 1.58681 -7.39232
LeftToes  2.65573e-010 7.17151e-011 4.62952e-011
87
root  47.078 43.4766 -0.276848 -114.046 86.8414 -121.21
RightUpLeg  -26.9548 2.91254 5.82253
RightLeg  18.9765 9.82022 0.347445
RightFoot  16.2979 -1.30909 4.96201
RightToes  3.49245e-010 -3.18055e-015 8.94531e-016
Spine  7.85824 0.308767 2.18362
Spine1  9.62969 0.476765 0.182132
HEad  -29.6011 1.08427 4.79542
LeftShoulder1  0 -2.69403e-036 -1.28585e-037
LeftArm  18.9712 60.2092 -83.3729
LeftForeArm  -48.6427 -27.3773 17.547
LeftHand  0.948726 6.70515 -4.90766
RightShoulder  -2.48481e-017 0 -8.08114e-019
RightArm  40.2719 -50.095 84.9949
RightForeArm  -44.3201 20.7047 -15.1265
RightHand  1.16154 -10.8656 -2.4437
LeftUpLeg  -25.7854 -7.9381 -0.428953
LeftLeg  14.8789 -2.63613 1.90081
LeftFoot  11.6423 1.90267 -8.39349
LeftToes  2.65573e-010 7.17151e-011 4.62952e-011
88
root  48.8591 41.393 -0.190755 -118.322 86.1678 -124.615
RightUpLeg  -27.7267 5.1561 5.85608
RightLeg  23.4043 9.30425 0.00892065
RightFoot  16.4444 -0.983733 3.70519
RightToes  3.49245e-010 -3.18055e-015 8.94531e-016
Spine  8.72357 0.103964 3.15949
Spine1  10.4114 0.44359 -0.34018
HEad  -31.1626 1.12889 4.71075
LeftShoulder1  0 -2.69403e-036 -1.28585e-037
LeftArm  19.7938 58.7051 -84.2245
LeftForeArm  -50.3338 -26.0988 16.7863
LeftHand  0.947085 6.6415 -5.52161
RightShoulder  -2.48481e-017 0 -8.08114e-019
RightArm  38.2535 -48.4115 86.5054
RightForeArm  -43.1053 20.597 -13.5598
RightHand  1.0794 -10.4914 -1.41787
LeftUpLeg  -27.4515 -9.43376 0.54419
LeftLeg  20.6748 -2.91957 2.39033
LeftFoot  11.6619 1.75881 -7.74251
LeftToes  2.65573e-010 7.17151e-011 4.62952e-011
